HIERARCHY
ROOT Hips
{
   OFFSET 0.00000 0.00000 0.00000
   CHANNELS 6 Xposition Yposition Zposition Zrotation Xrotation Yrotation
   JOINT RightUpLeg
   {
      OFFSET -8.945800 -8.667070 0.101652
      CHANNELS 3 Zrotation Xrotation Yrotation
      JOINT RightLeg
      {
         OFFSET 0.000000 -44.422697 1.372700
         CHANNELS 3 Zrotation Xrotation Yrotation
         JOINT RightFoot
         {
            OFFSET 0.253549 -42.092399 -1.460590
            CHANNELS 3 Zrotation Xrotation Yrotation
            JOINT RightToes
            {
               OFFSET 0.040000 -4.415090 8.499099
               CHANNELS 3 Zrotation Xrotation Yrotation
               End Site
               {
                  OFFSET -0.080000 -0.137448 9.779790
               }
            }
         }
      }
   }
   JOINT Spine
   {
      OFFSET 0.000000 11.890501 0.000000
      CHANNELS 3 Zrotation Xrotation Yrotation
      JOINT Spine1
      {
         OFFSET 0.000000 25.657401 0.127663
         CHANNELS 3 Zrotation Xrotation Yrotation
         JOINT HEad
         {
            OFFSET 0.000000 8.734161 0.011341
            CHANNELS 3 Zrotation Xrotation Yrotation
            End Site
            {
               OFFSET -0.290000 12.774200 2.513950
            }
         }
         JOINT LeftShoulder1
         {
            OFFSET 8.990000 -0.362252 -0.220000
            CHANNELS 3 Zrotation Xrotation Yrotation
            JOINT LeftArm
            {
               OFFSET 10.282700 -0.003380 0.322123
               CHANNELS 3 Zrotation Xrotation Yrotation
               JOINT LeftForeArm
               {
                  OFFSET 32.766900 0.099144 -1.424340
                  CHANNELS 3 Zrotation Xrotation Yrotation
                  JOINT LeftHand
                  {
                     OFFSET 27.564301 0.085362 1.022160
                     CHANNELS 3 Zrotation Xrotation Yrotation
                     End Site
                     {
                        OFFSET 16.744301 -0.600000 1.502910
                     }
                  }
               }
            }
         }
         JOINT RightShoulder
         {
            OFFSET -8.990000 -0.362252 -0.220000
            CHANNELS 3 Zrotation Xrotation Yrotation
            JOINT RightArm
            {
               OFFSET -10.282700 -0.003380 0.322123
               CHANNELS 3 Zrotation Xrotation Yrotation
               JOINT RightForeArm
               {
                  OFFSET -32.897098 0.099144 -1.424340
                  CHANNELS 3 Zrotation Xrotation Yrotation
                  JOINT RightHand
                  {
                     OFFSET -27.492101 0.085362 1.022160
                     CHANNELS 3 Zrotation Xrotation Yrotation
                     End Site
                     {
                        OFFSET -16.631201 -0.600000 1.502910
                     }
                  }
               }
            }
         }
      }
   }
   JOINT LeftUpLeg
   {
      OFFSET 8.945800 -8.667070 0.101652
      CHANNELS 3 Zrotation Xrotation Yrotation
      JOINT LeftLeg
      {
         OFFSET 0.000000 -44.422697 1.372700
         CHANNELS 3 Zrotation Xrotation Yrotation
         JOINT LeftFoot
         {
            OFFSET -0.253549 -42.092399 -1.460590
            CHANNELS 3 Zrotation Xrotation Yrotation
            JOINT LeftToes
            {
               OFFSET -0.040000 -4.415090 8.499099
               CHANNELS 3 Zrotation Xrotation Yrotation
               End Site
               {
                  OFFSET 0.080000 -0.047448 9.779790
               }
            }
         }
      }
   }
}
MOTION
Frames: 18
Frame Time: 0.016667
-847.908313 107.075756 461.854928 -32.584749 25.484114 -77.847586 -11.762734 35.065529 1.666146 47.205497 24.442959 -24.105201 -8.125670 32.855184 20.448285 1.987075 -26.797230 -44.588165 20.622491 22.434906 109.195252 12.225823 -7.457340 -124.295359 23.201704 -2.774022 -32.850413 -70.712006 -26.662034 -66.492370 17.192949 51.157516 -52.466812 11.616437 -7.508272 -53.918476 -54.116770 -62.615247 -78.298666 34.747522 324.607691 -3.195049 151.116924 155.988584 257.146896 -33.615657 -27.066602 32.076392 -19.924345 -8.207343 15.170103 12.582647 0.158064 -147.265709 -6.740416 -20.219831 110.093879 27.527776 55.772538 2.983765 -55.299049 -13.291306 5.584120
-847.328021 107.053850 461.583016 -29.740126 24.558720 -77.545248 -12.250380 32.974377 2.292218 47.394990 22.358561 -19.755106 -6.982349 32.146804 19.716060 3.125415 -25.167748 -44.213918 19.192582 24.693876 112.454249 10.361581 -6.227006 -123.585115 22.423475 -3.251348 -33.217532 -69.436857 -29.966174 -64.611698 12.829338 47.533708 -55.793049 9.430144 -0.648597 -52.511574 -49.909442 -61.273204 -80.870143 39.180878 316.392230 -0.602294 149.509371 147.799078 259.458505 -35.761504 -25.971624 31.211099 -19.617212 -8.581864 14.842040 12.059565 -2.638778 -145.409086 -5.727532 -19.865709 108.976775 25.779200 55.689702 4.199149 -55.064708 -13.661663 5.739410
-848.676287 106.657923 460.499566 -27.966061 23.878340 -78.594802 -12.141347 30.544702 1.993917 46.589222 21.441876 -20.766145 -7.270647 29.477502 21.242006 4.704386 -22.937635 -43.745248 16.737481 25.531843 115.192889 11.247897 -6.554649 -121.650437 21.470814 -3.942766 -33.689488 -68.949619 -33.571794 -65.093226 8.710757 45.450503 -58.403424 7.313034 2.326272 -53.703554 -50.248653 -67.629432 -80.892690 38.360767 310.920702 -0.488068 152.733863 146.294265 258.179976 -35.342660 -23.420676 33.777242 -19.686050 -8.967765 15.451379 11.750798 -3.862522 -143.113036 -6.633316 -21.157619 110.732297 23.491251 52.526822 7.350305 -54.609620 -14.281632 5.813481
-850.069415 106.223086 459.503320 -26.614899 22.184644 -80.306844 -13.119996 28.038898 -1.082649 43.105361 20.840604 -21.933716 -6.295980 27.760549 22.073397 7.793476 -18.729596 -42.969567 12.784518 24.720867 117.233312 13.395732 -7.626036 -119.157814 21.606426 -3.942928 -34.547418 -67.705316 -36.659555 -65.534026 4.917547 45.136766 -59.032191 5.616266 3.426237 -55.081989 -47.699278 -65.573197 -82.860010 39.381382 304.928932 -0.114041 155.535551 142.443650 256.414345 -34.382271 -21.072296 36.016540 -19.105504 -9.075013 17.069867 11.709089 -4.135989 -140.539994 -5.462634 -22.872854 112.466503 20.241168 50.519518 9.072350 -54.124359 -14.301323 5.595892
-851.467807 105.910605 458.598206 -25.798810 20.172083 -81.535411 -13.594002 25.678494 -4.506501 38.587502 22.066456 -15.626966 -4.781018 27.011037 19.837207 9.362139 -16.362053 -40.837220 9.347552 23.719690 119.075510 14.489353 -7.378053 -117.021426 22.039301 -3.040418 -35.489079 -66.989874 -39.043567 -65.783239 3.111342 45.253422 -59.206026 4.337533 3.941061 -56.577609 -48.232781 -68.268738 -81.955132 39.912268 297.037906 0.037178 158.165079 137.009524 255.438037 -32.749835 -17.817641 38.005051 -18.565815 -8.959320 18.031711 11.431045 -3.697069 -138.294419 -4.201568 -24.562675 114.138595 17.867483 48.035539 11.489649 -53.168136 -15.178521 5.251112
-852.956759 105.628918 457.638123 -25.344505 19.066830 -81.922853 -13.500812 22.776661 -7.409247 36.295219 25.937759 -11.987544 -3.762006 26.050574 20.697188 9.472303 -16.066683 -37.810472 8.128423 22.650623 119.229203 15.922245 -7.667509 -115.288361 23.064265 -1.072877 -36.445237 -67.765790 -39.661372 -66.809687 1.901853 46.771821 -58.295371 4.360093 -1.809939 -56.242271 -49.713870 -62.637759 -80.213851 41.016826 287.573121 -0.481615 160.272124 130.070994 255.917298 -31.020885 -14.502749 40.608258 -17.177343 -8.456981 19.604576 11.227625 -2.989938 -136.872674 -4.140752 -25.512251 116.183608 16.251834 45.002061 14.610577 -51.868248 -16.580735 4.797380
-854.538256 105.587233 456.699250 -28.230092 20.611979 -79.879315 -10.861946 22.211114 -9.610021 34.136589 30.905223 -8.609547 -1.053972 25.111366 23.664054 8.189411 -17.631452 -33.587886 8.609017 20.926984 116.112055 18.585138 -9.034968 -113.622355 25.104873 1.881430 -37.443978 -69.087302 -39.648705 -69.044661 1.392855 50.186939 -57.766462 6.279359 -5.236102 -54.559531 -51.505596 -62.150138 -77.299266 43.349807 277.184185 -1.281678 161.696573 120.594817 256.931663 -29.396274 -10.797545 41.333194 -15.601931 -7.783582 20.658426 13.396860 -0.158067 -138.618826 -5.692786 -26.030500 117.960919 15.045816 41.359487 17.587848 -50.281295 -17.841709 3.483705
-856.249758 105.825165 455.738671 -33.088923 23.400889 -77.491672 -6.752354 21.647646 -12.815225 30.892286 35.655339 -5.643787 0.824729 26.838836 25.985477 7.552978 -18.695035 -30.283935 11.509023 20.068433 111.337787 22.596269 -9.979457 -111.404326 27.416156 5.198812 -38.427460 -71.703353 -40.119251 -69.971948 1.712290 53.504304 -57.864079 8.343903 -6.778974 -53.486286 -51.113055 -60.331348 -75.375222 46.920213 264.718926 -1.675478 163.252791 109.730616 257.840160 -27.523110 -6.847788 42.292449 -13.330835 -7.010600 22.945703 15.637993 4.687793 -144.290109 -9.549227 -24.625269 119.088446 12.861849 37.825478 19.140195 -48.755232 -18.203947 1.577819
-858.033434 106.371449 454.763940 -38.794016 24.964364 -71.407627 -3.888563 21.749520 -17.969616 29.141808 38.849136 -4.264737 -0.942475 29.432993 27.849190 7.186518 -19.530564 -27.431660 15.607913 19.416850 105.585094 24.750637 -10.808187 -109.718356 28.584007 7.989977 -39.280459 -74.475870 -40.845501 -71.266166 1.867587 57.468474 -58.868219 9.900797 -7.300963 -53.949670 -51.705273 -60.824296 -74.014238 49.561574 248.424881 -2.097108 164.682951 98.302043 257.119138 -25.586800 -3.117880 43.723149 -10.712363 -6.258714 27.050618 20.234406 8.137858 -148.632279 -10.520527 -25.814980 120.468363 10.617818 33.714630 21.043941 -47.202737 -18.976772 0.224630
-859.844195 106.862057 453.867257 -44.873663 28.316095 -65.258469 -0.449710 20.527478 -21.870582 27.599107 40.006197 -2.601793 -1.260623 33.901555 31.588020 7.152775 -18.775485 -22.785265 20.830211 17.302203 100.209954 27.249916 -11.086975 -107.948777 28.883883 10.787395 -40.008564 -77.930669 -42.278157 -71.231319 1.846269 60.733810 -59.565526 12.217707 -8.218199 -53.110123 -50.040944 -61.233042 -73.313161 52.613910 231.022160 -2.905621 166.460275 84.476750 253.798464 -23.720950 1.187033 46.292498 -7.312000 -5.020854 32.830329 26.556139 10.618805 -154.359967 -13.273215 -25.875588 121.077698 6.444415 30.992171 20.807879 -45.953602 -18.156470 -1.424680
-861.489779 107.289141 453.165200 -50.794638 30.627477 -58.918503 0.142150 16.506855 -23.884683 26.790727 40.196111 -1.726764 -1.621883 44.262204 36.345766 8.484848 -16.217944 -20.325803 24.447597 13.558486 95.923785 30.464819 -11.978896 -104.908898 28.379371 13.631571 -40.652364 -79.919982 -43.779334 -70.951329 0.780439 65.013251 -59.567685 14.493894 -8.814976 -52.695295 -49.128400 -62.773318 -73.280833 55.629326 212.366168 -4.506994 167.306973 69.624387 249.437689 -21.511100 5.211289 49.560587 -4.206656 -3.933517 38.479244 34.353277 12.067054 -158.500099 -14.241084 -27.385657 121.427786 2.364798 27.558743 20.418299 -44.456212 -17.862884 -3.338019
-863.237826 107.270344 452.369149 -55.351153 33.261778 -54.150631 -1.638128 11.146695 -26.100385 28.813969 41.733743 -4.354053 -1.258916 54.192466 39.659903 9.920583 -14.168300 -19.571610 29.444474 10.590234 91.456151 33.383028 -11.987088 -103.163812 27.648778 16.428094 -41.345754 -81.252634 -45.250973 -70.069333 -0.320865 69.206031 -58.882733 16.242434 -9.319445 -52.621311 -46.434751 -64.306791 -76.172127 57.630254 192.309618 -7.129062 167.781425 53.642236 243.726694 -18.406458 9.331262 50.227381 -2.449915 -3.793816 41.613218 41.549974 12.219834 -160.093514 -14.068374 -28.908468 123.479356 -0.945398 24.138580 22.138031 -43.107602 -18.310421 -4.329430
-865.155779 106.858004 451.507371 -59.800239 35.878598 -51.039063 -3.759896 4.113594 -28.435099 29.975156 43.692348 -8.973060 -9.590387 61.422027 41.292534 11.160334 -12.135243 -18.980653 32.463281 8.282644 87.455470 36.181305 -11.169581 -102.065764 27.174678 19.704700 -42.098482 -82.979381 -46.956318 -68.468938 -1.478014 73.322101 -58.092917 17.226492 -9.186910 -54.745267 -45.205969 -65.513317 -79.993830 60.093521 172.370902 -10.157339 167.371846 37.358679 236.311185 -15.605123 12.863094 53.000130 -0.016560 -2.452423 46.898784 48.772707 12.776852 -159.927814 -12.607719 -30.822024 126.188387 -3.832125 22.177259 24.780321 -41.856342 -18.056819 -5.189395
-867.107760 106.149224 450.740197 -64.082904 38.238640 -50.656976 -7.569785 -1.740433 -30.953044 24.609388 43.523803 -11.272713 -9.178134 67.813847 42.926824 11.715232 -11.325425 -18.442566 31.717028 4.569766 86.030754 38.750723 -10.800990 -99.604464 26.744961 20.396599 -43.299643 -83.703306 -45.592421 -65.655958 -2.046095 77.463634 -54.030468 18.406907 -8.245197 -55.107923 -44.245942 -66.034843 -82.423854 63.521675 154.776663 -12.910555 166.392164 19.555269 224.019249 -14.749121 14.849270 53.077660 2.011609 -0.671595 48.179075 55.294111 16.033668 -162.124676 -12.114836 -31.894221 126.468684 -7.653521 19.487510 24.884843 -40.187867 -17.483444 -7.229838
-869.054095 105.240534 450.094102 -67.707078 42.102922 -50.398477 -15.014972 -8.803908 -37.485075 23.579218 44.735454 -9.004286 -10.551399 74.219650 46.787038 12.937597 -7.553202 -16.332360 32.747844 1.912557 85.953375 39.637920 -10.566368 -97.834188 27.217218 22.592905 -44.503727 -84.371968 -44.643940 -63.171416 -2.522162 79.730615 -51.061289 19.413766 -7.127606 -55.798605 -44.060598 -66.568840 -82.681742 64.192249 135.815839 -16.674163 162.116534 3.197784 212.199265 -14.675635 13.948073 52.567765 2.995643 0.346120 46.885540 61.066317 18.544841 -165.800520 -12.409291 -31.544354 126.148335 -11.122306 17.593797 24.894774 -38.174463 -17.018128 -9.948886
-871.401125 103.986128 449.232285 -67.557107 42.722635 -51.161132 -23.976317 -14.890010 -48.106163 16.447104 45.117580 -5.102079 -10.453246 76.586235 45.730633 13.609486 -6.211363 -16.596118 33.774114 0.943366 85.005522 39.629758 -12.043418 -99.053712 27.938573 24.947806 -45.791193 -85.767628 -42.600931 -61.085353 -2.799395 80.444629 -47.128059 20.557104 -6.083520 -55.417276 -43.862925 -67.233131 -80.529057 64.022300 117.522940 -23.334556 155.198536 -14.971525 199.205322 -15.561100 11.408364 52.020599 4.181250 1.732759 44.836606 64.780970 20.443564 -172.043531 -11.311510 -30.625947 122.207876 -15.167103 14.478635 21.380521 -35.286851 -16.191481 -14.908804
-874.382616 102.543715 448.017381 -69.340948 35.924124 -47.654797 -37.099846 -18.950961 -61.701477 -5.426853 37.536695 -0.417391 -14.831329 69.711267 36.969843 13.798629 -6.139476 -17.417290 25.910270 2.705854 88.464036 36.226756 -11.687973 -98.189966 28.690302 26.506422 -47.272777 -86.784889 -40.278793 -60.029365 -6.211420 79.645067 -44.198523 22.981193 -3.799321 -54.089194 -37.170463 -69.490652 -90.065265 55.807437 96.711729 -19.571453 137.951134 -33.454359 179.305716 -18.773542 9.650784 54.260399 -0.803370 13.966663 49.559381 65.246796 21.859102 -172.253846 -10.798012 -31.973338 123.686502 -16.574291 11.032207 24.206132 -33.437085 -16.117730 -17.443533
-877.720171 101.301640 446.490586 -69.741948 32.445253 -45.974878 -44.369739 -19.894364 -79.218945 -16.012706 34.557953 8.831065 -12.971951 67.962909 31.883863 14.332551 -5.235930 -17.914027 25.097870 6.822160 87.630856 31.918492 -11.591529 -100.683552 29.788449 27.933093 -48.920748 -86.360488 -39.293443 -58.860542 -9.377587 77.777768 -42.773127 22.496164 -2.408269 -49.345091 -43.652166 -70.516150 -71.207584 57.764904 88.509744 -22.149687 129.826351 -42.490518 174.917893 -23.886032 9.076875 52.951660 11.138587 -2.278997 30.074959 64.843924 23.860323 -175.639708 -12.533169 -30.486006 124.184710 -17.819581 7.972331 26.663592 -31.253955 -15.989642 -20.510199
